<svg width="13" height="21" viewBox="0 0 13 21" fill="none" xmlns="http://www.w3.org/2000/svg">
<path fill-rule="evenodd" clip-rule="evenodd" d="M0.814028 6.0515C0.327754 6.0515 -0.0660596 5.63675 0.00927867 5.14675C0.480143 2.17 2.6992 0 6.55001 0C10.4025 0 13 2.38 13 5.62625C13 7.97825 11.8614 9.63025 9.9351 10.829C8.05164 11.9822 7.514 12.7855 7.514 14.3465V14.399C7.514 14.6311 7.4238 14.8536 7.26325 15.0177C7.1027 15.1818 6.88494 15.274 6.65788 15.274H5.33946C5.11388 15.274 4.89741 15.183 4.7371 15.0208C4.5768 14.8586 4.4856 14.6383 4.48335 14.4077L4.47821 14.0577C4.40458 11.921 5.29495 10.556 7.29484 9.31175C9.05844 8.20575 9.68683 7.3255 9.68683 5.76275C9.68683 4.0495 8.38895 2.79125 6.38906 2.79125C4.66142 2.79125 3.46114 3.717 3.07075 5.24475C2.95775 5.68925 2.59475 6.0515 2.14615 6.0515H0.814028ZM5.98669 21C7.0517 21 7.86158 20.1705 7.86158 19.0925C7.86158 18.011 7.0517 17.1815 5.98669 17.1815C4.94907 17.1815 4.12549 18.011 4.12549 19.0908C4.12549 20.1705 4.94907 21 5.98669 21Z" fill="#C7C7CC"/>
</svg>
